<svg width="46" height="25" viewBox="0 0 46 25" fill="none" xmlns="http://www.w3.org/2000/svg">
<g id="Group 39186">
<path id="Vector" d="M9.29167 1.49365H36.375C36.6972 1.49365 36.9583 1.75482 36.9583 2.07699V22.9103C36.9583 23.2325 36.6972 23.4937 36.375 23.4937H9.29167C8.9695 23.4937 8.70833 23.2325 8.70833 22.9103V2.07699C8.70833 1.75482 8.9695 1.49365 9.29167 1.49365Z" fill="#FF694E" stroke="#F2F2F5" stroke-width="3" stroke-miterlimit="3.3292"/>
<path id="Vector_2" d="M15.625 8.32699C15.625 8.37301 15.5877 8.41032 15.5417 8.41032C15.4956 8.41032 15.4583 8.37301 15.4583 8.32699C15.4583 8.28096 15.4956 8.24365 15.5417 8.24365C15.5877 8.24365 15.625 8.28096 15.625 8.32699Z" fill="white" stroke="#F2F2F5" stroke-width="4"/>
<path id="Vector_3" d="M30.2083 8.32699C30.2083 8.37301 30.171 8.41032 30.125 8.41032C30.079 8.41032 30.0417 8.37301 30.0417 8.32699C30.0417 8.28096 30.079 8.24365 30.125 8.24365C30.171 8.24365 30.2083 8.28096 30.2083 8.32699Z" fill="white" stroke="#F2F2F5" stroke-width="4"/>
<g id="Vector_4">
<path d="M18.6667 16.0397C17.516 16.0397 16.5833 16.7739 16.5833 17.6797C16.5833 18.5856 17.516 19.3198 18.6667 19.3198H27C28.1506 19.3198 29.0833 18.5856 29.0833 17.6797C29.0833 16.7739 28.1506 16.0397 27 16.0397H18.6667Z" fill="white"/>
<path d="M18.6667 16.0397C17.516 16.0397 16.5833 16.7739 16.5833 17.6797C16.5833 18.5856 17.516 19.3198 18.6667 19.3198H27C28.1506 19.3198 29.0833 18.5856 29.0833 17.6797C29.0833 16.7739 28.1506 16.0397 27 16.0397H18.6667Z" stroke="#F2F2F5"/>
</g>
<path id="Vector_5" d="M2 8.3269V16.6602" stroke="#F2F2F5" stroke-width="4" stroke-linecap="round" stroke-linejoin="round"/>
<path id="Vector_6" d="M43.6667 8.3269V16.6602" stroke="#F2F2F5" stroke-width="4" stroke-linecap="round" stroke-linejoin="round"/>
</g>
</svg>
